HIERARCHY
ROOT root
{
  OFFSET 0.000000 0.000000 0.000000
  CHANNELS 6 Xposition Yposition Zposition Zrotation Yrotation Xrotation
  JOINT lhipjoint
  {
    OFFSET 0.000000 0.000000 0.000000
    CHANNELS 3 Zrotation Yrotation Xrotation
    JOINT lfemur
    {
      OFFSET 0.077512 -0.103766 0.048358
      CHANNELS 3 Zrotation Yrotation Xrotation
      JOINT ltibia
      {
        OFFSET 0.143271 -0.393634 0.000000
        CHANNELS 3 Zrotation Yrotation Xrotation
        JOINT lfoot
        {
          OFFSET 0.149745 -0.411421 0.000000
          CHANNELS 3 Zrotation Yrotation Xrotation
          JOINT ltoes
          {
            OFFSET 0.012474 -0.034272 0.129696
            CHANNELS 3 Zrotation Yrotation Xrotation
            End Site
            {
              OFFSET 0.000000 -0.000000 0.067298
            }
          }
        }
      }
    }
  }
  JOINT rhipjoint
  {
    OFFSET 0.000000 0.000000 0.000000
    CHANNELS 3 Zrotation Yrotation Xrotation
    JOINT rfemur
    {
      OFFSET -0.073466 -0.103765 0.048358
      CHANNELS 3 Zrotation Yrotation Xrotation
      JOINT rtibia
      {
        OFFSET -0.148803 -0.408833 0.000000
        CHANNELS 3 Zrotation Yrotation Xrotation
        JOINT rfoot
        {
          OFFSET -0.147898 -0.406346 0.000000
          CHANNELS 3 Zrotation Yrotation Xrotation
          JOINT rtoes
          {
            OFFSET -0.011721 -0.032203 0.136823
            CHANNELS 3 Zrotation Yrotation Xrotation
            End Site
            {
              OFFSET -0.000000 -0.000000 0.070544
            }
          }
        }
      }
    }
  }
  JOINT lowerback
  {
    OFFSET 0.000000 0.000000 0.000000
    CHANNELS 3 Zrotation Yrotation Xrotation
    JOINT upperback
    {
      OFFSET 0.003239 0.120882 -0.012878
      CHANNELS 3 Zrotation Yrotation Xrotation
      JOINT thorax
      {
        OFFSET 0.001579 0.120885 0.004598
        CHANNELS 3 Zrotation Yrotation Xrotation
        JOINT lowerneck
        {
          OFFSET 0.000073 0.123182 0.010643
          CHANNELS 3 Zrotation Yrotation Xrotation
          JOINT upperneck
          {
            OFFSET -0.003962 0.089692 0.018615
            CHANNELS 3 Zrotation Yrotation Xrotation
            JOINT head
            {
              OFFSET -0.001809 0.093293 -0.011960
              CHANNELS 3 Zrotation Yrotation Xrotation
              End Site
              {
                OFFSET -0.000410 0.094143 -0.006124
              }
            }
          }
        }
        JOINT lclavicle
        {
          OFFSET 0.000073 0.123182 0.010643
          CHANNELS 3 Zrotation Yrotation Xrotation
          JOINT lhumerus
          {
            OFFSET 0.221747 0.055052 -0.004480
            CHANNELS 3 Zrotation Yrotation Xrotation
            JOINT lradius
            {
              OFFSET 0.315155 -0.000000 -0.000000
              CHANNELS 3 Zrotation Yrotation Xrotation
              JOINT lwrist
              {
                OFFSET 0.209458 -0.000000 0.000000
                CHANNELS 3 Zrotation Yrotation Xrotation
                End Site
                {
                  OFFSET 0.104729 -0.000000 -0.000000
                }
              }
            }
          }
        }
        JOINT rclavicle
        {
          OFFSET 0.000073 0.123182 0.010643
          CHANNELS 3 Zrotation Yrotation Xrotation
          JOINT rhumerus
          {
            OFFSET -0.220075 0.061461 -0.012750
            CHANNELS 3 Zrotation Yrotation Xrotation
            JOINT rradius
            {
              OFFSET -0.293713 -0.000000 -0.000000
              CHANNELS 3 Zrotation Yrotation Xrotation
              JOINT rwrist
              {
                OFFSET -0.205987 -0.000000 0.000000
                CHANNELS 3 Zrotation Yrotation Xrotation
                End Site
                {
                  OFFSET -0.102993 -0.000000 -0.000000
                }
              }
            }
          }
        }
      }
    }
  }
}
MOTION
Frames: 5
Frame Time: 0.04166667
0.00000 0.33900 0.00000 12.79962 2.37862 1.89341 0.00000 -0.00000 0.00000 10.90705 21.20881 -117.48239 33.17470 15.18300 131.78953 -4.59243 -34.74228 13.56573 0.02815 -1.08319 -2.97774 0.00000 -0.00000 0.00000 59.69051 -3.72695 -100.14050 -34.99347 -13.39114 139.14913 -0.25269 23.09613 -18.03810 -6.85490 15.20848 -48.32338 1.41149 0.37478 45.34180 -0.49205 -3.91608 12.26300 0.64705 -3.72697 -7.23893 -0.06628 7.08484 -19.45710 -10.02510 10.36190 5.50628 -2.09805 4.18657 5.34696 0.00000 0.00000 0.00000 6.17222 -75.46277 -17.49892 18.06940 -28.24594 -4.58204 -0.00000 -0.00000 12.95580 0.00000 0.00000 0.00000 70.39606 25.44927 18.06872 -11.51218 19.06905 -1.93996 0.00000 0.00000 38.40800
0.00000 0.38064 0.00000 12.61052 5.42109 8.29274 0.00000 -0.00000 0.00000 5.01523 17.60714 -122.13624 33.56344 14.83846 133.29036 -4.30517 -33.82452 12.72984 0.00182 0.27579 0.75776 0.00000 -0.00000 0.00000 58.73269 -11.12974 -105.60801 -35.35339 -12.97442 140.72721 1.14378 30.22071 -14.66192 -4.36975 12.63682 -38.02374 4.00222 -1.64617 45.24190 0.01549 -5.03133 12.40910 0.31780 -4.12085 -7.08612 -0.72652 6.82622 -20.12830 -13.02970 9.95927 2.78260 -2.99860 3.74593 4.74615 0.00000 -0.00000 0.00000 -50.87882 -80.79570 23.25600 12.87329 -21.10128 -2.40748 -0.00000 -0.00000 26.41570 0.00000 -0.00000 0.00000 66.45655 26.55211 15.75908 -8.94309 15.06968 -1.18528 0.00000 0.00000 38.07880
0.00000 0.42187 0.00000 13.90533 7.69613 16.14935 0.00000 -0.00000 0.00000 -0.00114 12.85813 -125.54980 33.48882 14.90605 132.99964 -4.34752 -33.94616 13.58653 0.07572 1.77513 4.88459 0.00000 -0.00000 0.00000 56.12344 -13.89724 -110.01275 -35.40613 -12.91130 140.96267 2.46296 36.03810 -13.13403 -1.70964 8.23311 -23.42438 5.37582 -3.41717 44.17210 0.44808 -6.22201 12.17300 0.52745 -4.48555 -7.10499 -0.53427 6.88024 -20.51370 -15.27410 9.58369 0.00333 -3.79218 3.43899 4.08109 0.00000 -0.00000 0.00000 -98.08672 -77.52960 48.68582 13.02962 -21.33059 -2.46405 -0.00000 -0.00000 33.58500 0.00000 -0.00000 0.00000 62.93809 28.16340 15.25446 -7.55292 12.82558 -0.85012 0.00000 0.00000 35.99530
0.00000 0.46192 0.00000 14.56837 7.10210 23.46306 0.00000 -0.00000 0.00000 -3.58774 9.46044 -126.56180 33.11566 15.23371 131.56449 -4.46378 -34.45286 11.00166 0.23411 3.11409 8.59653 0.00000 -0.00000 0.00000 52.61100 -10.98699 -111.98246 -35.17611 -13.18268 139.94380 1.66081 35.48454 -17.04299 -1.24815 7.08339 -19.96266 6.25127 -3.53227 43.93460 0.96561 -5.51236 11.52710 0.35642 -3.99408 -7.72709 -1.95761 6.16800 -19.87380 -16.07010 8.42310 -2.27304 -3.96864 2.89689 3.18638 -0.00000 -0.00000 0.00000 -110.89611 -75.56038 63.51729 16.63693 -26.37665 -3.92467 -0.00000 -0.00000 21.49680 -0.00000 -0.00000 0.00000 59.25343 29.03057 11.60142 -6.30205 10.76499 -0.59437 0.00000 0.00000 34.33740
0.00000 0.50022 0.00000 14.09890 5.39440 29.08331 0.00000 -0.00000 0.00000 -4.72077 6.30835 -125.62135 32.59206 15.66601 129.59916 -4.44604 -35.10132 5.99473 0.29406 3.48704 9.63778 0.00000 -0.00000 0.00000 47.45829 -5.78703 -112.70096 -34.83294 -13.56949 138.46050 0.10336 30.97908 -21.41518 -1.60978 8.00102 -22.71717 6.72621 -2.72788 43.84830 1.61548 -4.05731 11.28950 0.19105 -3.25568 -7.87642 -3.94603 5.42601 -18.97360 -16.31760 7.27966 -4.33015 -3.86720 2.42623 2.27060 -0.00000 0.00000 0.00000 -126.54026 -75.21774 82.56664 16.19563 -25.78518 -3.73065 -0.00000 -0.00000 20.52560 -0.00000 0.00000 0.00000 55.88984 31.12425 1.44470 -4.98071 8.55190 -0.37263 0.00000 0.00000 38.26030
